#!OML:ASF F:\VICON\USERDATA\INSTALL\rory3\rory3.ASF
:FULLY-SPECIFIED
:DEGREES
78
root 0.034655869831044045 17.474373837297414 47.542525943008286 2.672164958273029 1.20194313059604 0.19430820100909463
lfemur -0.44902087691597536 -2.0133624128750705 -27.06122474621483
ltibia 42.70907754266054
lfoot -14.904591356428702 -3.5633808597640315
ltoes -2.642573678380918
rfemur -44.229793915667386 -5.910465339456765 24.996668579463012
rtibia 85.27948408768384
rfoot 4.504107304226377 -11.008645607559775
rtoes 0.13784418126409959
lowerback 16.260415243491725 0.2335748011716572 -1.6065024595067128
upperback -0.13695719102542103 0.23748752379148486 0.8709540189485816
thorax -9.568310129887708 0.2057617248243513 2.7838097802998014
lowerneck -19.676294234740126 -2.7726667328574637 -3.2632572794971173
upperneck 12.770544827493142 -3.6415597244376037 4.295558370309571
head 7.4002526600125105 -1.377019570938372 1.4540492379210503
lclavicle -2.6070433094049425e-16 2.8485447917782616e-15
lhumerus -38.74009120784184 -16.826492800627985 96.68865613781483
lradius 105.93417028516656
lwrist 35.70138125450625
lhand -25.92535987069012 0.611085124554311
lfingers 7.12502
lthumb 0.6178949136111267 30.58876413228173
rclavicle -2.6070433094049425e-16 2.8485447917782616e-15
rhumerus -53.13439560800426 10.512476916691696 -98.74288947047734
rradius 113.94697119007179
rwrist -11.349655993825431
rhand -15.239769639267996 39.827771354890885
rfingers 7.12502
rthumb 10.933661746850662 10.138671885274295
79
root -0.021174461290061647 17.37783579948928 48.81261248361711 3.6986948114935987 2.329521732921756 0.5914141479584569
lfemur 5.410158398688727 -1.3952530521531796 -27.643937818366155
ltibia 36.80178981444499
lfoot -15.287296133007475 -4.132328683274929
ltoes -4.540458293325589
rfemur -45.30543842736951 -2.433951152385367 23.5868720932581
rtibia 63.462833143068224
rfoot 3.898777210479981 -15.25161920621343
rtoes -3.124982323348125
lowerback 15.571748622267801 -0.18326641195578386 -2.461759374755694
upperback -0.3755077112090238 -0.45162509945544316 0.9373888464181502
thorax -9.38978794650355 -0.07754736582871469 3.5494763508626628
lowerneck -19.842640429997488 -2.8591304662530126 -3.3868675642966597
upperneck 12.565425487965374 -3.7496739760214925 4.506084406293239
head 7.36549293617161 -1.4058395462921733 1.5291310603010158
lclavicle -4.737117697903226e-16 2.694031453648232e-15
lhumerus -33.103134880792105 -19.026145224699327 96.48207222730967
lradius 109.98474849222008
lwrist 36.613609755777546
lhand -25.735034982517757 1.1633352983179566
lfingers 7.12502
lthumb 0.8016568076479692 31.139429352153307
rclavicle -4.737117697903226e-16 2.694031453648232e-15
rhumerus -55.078190289464736 10.310268593473406 -98.54686831083474
rradius 113.13955963581742
rwrist -11.212121621261621
rhand -15.094065728191678 40.17660954715603
rfingers 7.12502
rthumb 11.07426082493503 10.494186380338599
80
root -0.09730767660875814 17.19586027270446 49.88899333397996 4.659189982945921 3.2973729305216746 0.9070087848856283
lfemur 11.427304675806218 -1.2649144467489992 -28.05306232064136
ltibia 31.306839682043776
lfoot -15.244871054676805 -5.109118045171415
ltoes -8.288339085661285
rfemur -45.22415491091689 1.1529821462613865 22.254330679763854
rtibia 44.05930956067556
rfoot 3.515605798009468 -18.286446594539544
rtoes -6.994906412383672
lowerback 14.723886792756499 -0.5710903901909059 -3.2190372242455556
upperback -0.6386216731054797 -1.0786772484331375 1.020752422763946
thorax -9.17389635000226 -0.3369199773105903 4.23700691553993
lowerneck -20.06324836230824 -2.8712643945929592 -3.4378043461301475
upperneck 12.462703055191556 -3.784686619440015 4.600316788805291
head 7.3602596000285025 -1.4000330485650991 1.560501714101594
lclavicle -7.90968060890793e-16 2.4638985671176907e-15
lhumerus -28.226287772552123 -20.70314601245164 96.06692838525616
lradius 113.57087844131148
lwrist 37.34604800132311
lhand -25.802306553979733 1.257666830999486
lfingers 7.12502
lthumb 0.736675655060954 31.230213595892174
rclavicle -7.90968060890793e-16 2.4638985671176907e-15
rhumerus -57.10668617824849 9.339519329082218 -97.85936632112634
rradius 111.49456889459746
rwrist -10.611210183016087
rhand -15.068278178908034 40.520760251981564
rfingers 7.12502
rthumb 11.099168563601898 10.81998639269611
81
root -0.18657792500840342 16.94905602254916 50.67115180255583 5.267634307237413 3.9845512981594275 1.0079648798634557
lfemur 16.482491561475968 -2.02522162471998 -28.043173934691573
ltibia 29.33445322553314
lfoot -14.639980473713653 -6.188126707239447
ltoes -13.699387526484507
rfemur -44.51836300107324 3.1608798824355073 21.842244241681463
rtibia 34.40132680669079
rfoot 3.9719857516968062 -17.720918822482663
rtoes -10.27452391381454
lowerback 14.126096791151879 -0.8358728524064825 -3.557281634818425
upperback -0.7887965465725221 -1.4768981119471238 1.2266143139687364
thorax -8.997071354366541 -0.5052886882485098 4.728388078191026
lowerneck -20.359195236231038 -2.821941645908006 -3.4369601467159128
upperneck 12.539449268234511 -3.724225853446364 4.567142792693757
head 7.404206755527439 -1.363715759361224 1.553744028891869
lclavicle -7.941304738168724e-16 2.46159555698098e-15
lhumerus -24.830392896024456 -21.552617474491072 95.84663935901412
lradius 116.28825517921783
lwrist 37.83779842104667
lhand -26.19731320307588 0.7571681031726585
lfingers 7.12502
lthumb 0.3552280923479061 30.724747592773927
rclavicle -7.941304738168724e-16 2.46159555698098e-15
rhumerus -58.992856176660716 7.641773941309161 -96.5210662035373
rradius 109.24954764487825
rwrist -9.572214037675476
rhand -15.320950186098685 40.73981566205108
rfingers 7.12502
rthumb 10.855379686267256 11.02058499623663
